<svg id="Layer_1" data-name="Layer 1" xmlns="http://www.w3.org/2000/svg" viewBox="0 0 646.06 746"><defs><style>.cls-1{fill:#efffff;}.cls-2{fill:#7ac943;}.cls-3{fill:none;stroke:#000;stroke-miterlimit:10;stroke-width:4px;}.cls-4{font-size:138px;font-family:Ubuntu-Medium, Ubuntu;}</style></defs><title>logoeeguana</title><polygon class="cls-1" points="6 556.04 6 189.96 323.03 6.93 640.05 189.96 640.05 556.04 323.03 739.07 6 556.04"/><path class="cls-2" d="M640.71,27.86l311,179.57V566.57l-311,179.57-311-179.57V207.43l311-179.57m0-13.86-323,186.5v373l323,186.5,323-186.5v-373L640.71,14Z" transform="translate(-317.69 -14)"/><path class="cls-2" d="M674.92,368.32c0,.74,1.68,1.27,3.61,1.15l1.93-.16-1.52-.7C677.26,367.87,674.92,367.67,674.92,368.32Z" transform="translate(-317.69 -14)"/><line class="cls-3" x1="65.81" y1="401.5" x2="487.31" y2="402"/><line class="cls-3" x1="72.81" y1="264" x2="72.81" y2="438.5"/><path class="cls-2" d="M754.69,524.27c4.15.71,21.58,5.48,21.73,5.6.95.55,13.35,1.3,22,1.3,11.89,0,20-.71,24.33-2.17,6.91-2.33,17.66-7.78,25.67-13.11,6.16-4.07,8.93-6.68,14.22-13.55,1.74-2.29,3.52-4.42,3.87-4.74.87-.67,5.61-7.35,7.15-10a7.18,7.18,0,0,1,2.21-2.45c.91-.47,1.26-1.18,2.13-3.91a15.8,15.8,0,0,1,1.34-3.59c.24-.12.67.2,1,.67,1,1.46,1.46.39,2.25-5.81.91-7.31,1.5-8.29,3.16-5.33.51.87,1.11,1.54,1.3,1.46s.47-1.46.55-3a10.16,10.16,0,0,1,.55-3.44,2.84,2.84,0,0,1,1.82-.51h1.38l-.24-1.7c-.12-.91-.36-2.41-.51-3.36-.32-2,.16-2.13,1.9-.67,1.18,1,1.9,1.26,1.9.67a24.29,24.29,0,0,0-1.15-3c-1.34-3.2-1.26-3.95.47-3.55,1.18.24,1.18.24.91-1.07a20.11,20.11,0,0,0-2-4.38c-2.53-4.38-2.37-4.7,1.22-2.65,1.3.75,2.13,1,2.13.71a14.24,14.24,0,0,0-1.94-3.16c-1.07-1.46-2.13-3-2.37-3.48-.75-1.34.32-1,2,.63.83.79,1.5,1.26,1.5,1a21.74,21.74,0,0,0-1.18-3.4c-1.58-4-1.58-5.06.08-3.59,1.46,1.38,1.22-.55-.67-4.66-1-2.25-1.94-4.38-2.05-4.78-.36-1.11.83-.79,2.69.75s3.91,2.73,3.91,2.33a36,36,0,0,0-2.57-3.83c-3.32-4.66-3.44-5.57-.39-3.67,2.84,1.74,2.88,1.22.2-2.17a18.91,18.91,0,0,1-2-2.76c0-.39,1-.79,2-.79.39,0,.75-.16.75-.32a21.51,21.51,0,0,0-2.17-3.2c-1.18-1.58-2.09-3-2-3.24s1-.24,2-.08,1.78.16,1.78,0a20.31,20.31,0,0,0-1.58-2.29c-2.29-3-2.05-3.67.95-2.53,1.15.43.67-.43-2.17-3.79s-3.83-4.94-3.4-5.37a4.67,4.67,0,0,1,2.25.24,5.29,5.29,0,0,0,2.25.24c.36-.32-2.41-3.12-6.48-6.64-4.58-3.95-4.31-4.58.83-2,1.66.79,3.12,1.34,3.28,1.18s-1.82-2.37-4.34-4.94a39.77,39.77,0,0,1-4.62-5.13c0-.59.59-.59,1.62,0,2,1.07,1.38-.2-1.74-3.55a30.69,30.69,0,0,1-3.44-4c0-.59,1.11-.39,3.59.67a6.29,6.29,0,0,0,2.65.75c.36-.36-1.82-2.37-4.86-4.42s-3.55-3-2.13-3.4.71-1.15-2.84-3.32c-7.19-4.42-7.78-5.1-4.07-4.62,3.08.36,2.73-.28-1.58-3-1.9-1.18-3.4-2.37-3.32-2.57s1.11-.39,2.29-.39a4.44,4.44,0,0,0,2.33-.39c.2-.51-1.42-1.26-8.06-3.75-5.29-1.94-7-2.84-6.44-3.4a8.39,8.39,0,0,1,2.76.36c7.11,1.7,7.27,1,.47-2-9.16-4-9.52-4.46-3.87-4.46,4.82,0,4.58-.43-1.34-2.37-2.88-.95-4.23-1.58-4.23-2s.39-.63.91-.71c1.42-.2,1-.63-1.38-1.46-2.09-.71-2.29-.91-2.41-2.05-.12-1.34-1.18-2.13-7.19-5.29-2.73-1.46-2.37-2.13,1.07-2.17,4.86,0,4.34-.59-3-3.12a46.36,46.36,0,0,1-5.69-2.17c-.28-.28,1.18-.39,4-.39,2.45,0,4.5-.16,4.66-.39.51-.83-2.13-1.66-11.57-3.59a58.64,58.64,0,0,1-6.08-1.42c-.79-.43.91-.87,3.67-.87,4.38,0,8.73-.51,8.33-.91s-7.11-1.5-9.56-1.5a6.12,6.12,0,0,1-2.37-.39c-1.22-.79.55-1.18,5.69-1.18,2.84,0,5-.16,4.74-.32-.36-.36-2.92-.67-14-1.7a56.46,56.46,0,0,1-5.81-.79c-1.78-.63-.91-1.15,2-1.18a16.69,16.69,0,0,0,3.63-.32c.79-.36-.12-.71-5.21-2-.95-.24-1.7-.59-1.7-.75,0-.63,1.18-.83,4.66-.83,3.24,0,5-.39,4.15-.91-.59-.39-5.53-1.38-11-2.25-2.8-.43-5.73-.91-6.44-1s-1.26-.39-1.15-.67,2.17-.63,6.12-.91a38.52,38.52,0,0,0,6.24-.67c.87-.87-5.61-1.78-16.83-2.41-7.07-.36-8.49-.51-8.49-1s1-.75,3.95-1.26c2.17-.36,4.86-.67,5.92-.71a10.09,10.09,0,0,0,2.76-.39l.79-.32-.79-.32c-1-.47-8.14-.43-14.61,0-4.62.32-5.1.32-4.62-.24.55-.71,5.53-1.7,10.51-2.09,2.92-.28,5.29-.83,4.38-1-.2-.08-2.09-.12-4.15-.16a18.6,18.6,0,0,1-5.53-.67,46.48,46.48,0,0,0-6.87-1.3,49.11,49.11,0,0,1-6-1c-1.9-.71-.83-1.11,3.24-1.22,2.37-.08,4.19-.28,4.23-.51,0-.39-4.66-1.94-7.27-2.37-.87-.12-1.5-.47-1.5-.75,0-.63,2.05-1,5.65-1,2.49,0,3.4-.43,2.05-.95a104.51,104.51,0,0,0-12.24-1.86c-9.24-.95-8.57-1.86,1.7-2.33L779,261c.08,0,0-.24-.12-.43s-1.42-.39-2.88-.39c-4.27,0-7.58-.71-9.64-2-1.26-.83-3.71-1.66-8.06-2.76a47.67,47.67,0,0,1-6.6-1.9c-.95-.95.39-1.22,5.77-1.26,6,0,8.53-.36,7.27-.87-1-.39-10.11-1.34-16-1.7-7.9-.43-6.56-1.58,2.61-2.17a64,64,0,0,0,6.52-.71c.79-.32.75-.36-.51-.55-.75-.16-5.92-.32-11.49-.39a103.23,103.23,0,0,1-10.63-.47c-.83-.51.43-1,2.76-1,1.18,0,3.67-.12,5.49-.28,3.63-.28,3.4-.71-.63-1.07-15.33-1.5-19-1.94-19.35-2.37-.12-.12-.08-.36.08-.59s2.84-.43,7.62-.47c4.07,0,8.26-.16,9.32-.28,4.9-.67.91-1.74-9.12-2.49-8.85-.63-11.22-.91-11.22-1.34,0-.24,1.26-.71,2.88-1.07,5.73-1.38,6.75-1.7,6.91-2.17.12-.28-.55-.55-1.74-.71-3.08-.43-3.32-.55-3-1.58.2-.87.08-.91-2.29-1.18a16.68,16.68,0,0,1-3.79-.83c-1.94-.79-5.29-1.34-10.9-1.74-7.31-.55-7.27-1,.32-2.41,9.2-1.66,7.74-2.13-6.48-2.13a129.87,129.87,0,0,0-14,.55c-5.69.91-7,1-6.83.39.08-.32.95-.79,1.94-1.07,1.78-.55,14.46-4.42,17.85-5.49,1-.32,1.78-.75,1.62-.95-.36-.63-2.92-.39-10.63,1-14,2.49-14.93,2.57-14.22,1.42.36-.55,6.87-3.83,12.28-6.12,4.78-2.05,5.53-2.49,4.94-3.08-.39-.39-7.54,1.62-17.42,4.9-6.4,2.13-9.36,3.44-10.23,4.46-.63.75-1.22.47-1.22-.59s2.88-3,6-3.95c2.33-.71,2.69-.95,2.49-1.62-.39-1.11.24-1.62,4.78-4.11a32,32,0,0,0,4.74-3c.63-.71.63-.75-.36-.75-1.46,0-6.68,1.7-13.31,4.34s-9.28,3.24-13.55,3.08c-5.06-.2-3.95-1.34,2.73-2.69,4.54-.95,6.48-1.5,6.48-2,0-1-3.87-.75-15.13.83-4.54.63-6,.75-6.32.36-.67-.63.67-1.7,6.12-4.94,4.62-2.76,5.85-3.63,5.85-4.19,0-.2-1.46.2-3.24.87-16.12,6.08-17.7,6.56-17.7,5.53,0-.47,6.75-5.77,11-8.53,3.75-2.49,4.66-3.36,3.59-3.36-1.3,0-7.19,2.41-11.89,4.86-3.83,2-5.53,2.73-5.85,2.41-.71-.71,1.7-3.75,6.4-8,8-7.15,10-9.08,9.72-9.36s-3.52.71-7,2.25c-2.73,1.22-4.74,2.65-10.23,7.31-3.16,2.69-4.38,3.4-4.38,2.53,0-.47,2.61-3.4,9.16-10.27a76.61,76.61,0,0,0,5.45-6c0-.75-1.15-.16-4.5,2.41l-3.59,2.73-4.23-.2c-2.37-.12-4.27-.36-4.27-.55a18.92,18.92,0,0,1,1.78-2.88c2-3,2.17-3.59.91-3.16-.95.28-1.42.63-5.41,4a26.76,26.76,0,0,1-4.07,2.88A24.94,24.94,0,0,1,608.11,186c-2.57,0-3.59.16-4.54.75s-1.38.71-2.21.32c-1.38-.71-1.22-1.54.39-2.09l9.56-3.12c7.86-2.57,9.87-3.4,9.36-3.95-.28-.24-6,.2-13.19,1-8.18.91-9.4.95-9.2.36s10-3.91,14.65-4.9c3.32-.71,3.87-1.42,1.82-2.13-2.25-.79-6-.47-13.94,1.15-4.27.87-8.14,1.58-8.57,1.58-1.38,0-.79-1,1.34-2.21,8.81-5.17,10.94-6.6,10.94-7.31s-1.58-.16-6.52,2c-2.37,1-5,2.13-5.73,2.41s-3.32,1.5-5.65,2.65c-4.23,2.09-4.31,2.13-5.33,1.46-1.62-1-3.24-2.61-3.24-3.2,0-.28.47-.71,1.11-.95s2.29-1,3.75-1.62,2.8-1.11,2.92-.95c.47.47-.32,1.42-1.86,2.21-1.38.71-1.58.95-1.34,1.7a5.69,5.69,0,0,0,.36,1c.28.32,2.09-1,5.85-4.23,5.49-4.7,9.08-8.37,8.61-8.85s-1.3,0-4.5,2.45c-3.95,3-12.36,7.31-15.76,8.1-1.18.28-2.41-.63-2.05-1.5.12-.32,3.12-1.74,6.68-3.2a73.45,73.45,0,0,0,7.19-3.24c1.18-.95-5.89-.36-12.32,1.07-3,.67-5.89,1.3-6.36,1.38-1.15.24-2.69-.91-2.13-1.58s5.81-2,13-3.16c9.36-1.46,13.27-2.65,10.19-3.12-9.44-1.46-15.72-1.38-24.29.39-4.46.91-7.07,1.26-7.31,1-.47-.47.71-2.88,3.28-6.6,2.84-4.11,4.15-5.17,9.91-8.14,5.53-2.8,6-3.48,1.9-3-3.44.39-10,4.46-15.25,9.44a31.37,31.37,0,0,1-3.48,3.08c-.47,0-.24-1.86.51-4,.95-2.8,6-14.06,7.78-17.3a9.32,9.32,0,0,0,1.26-3c-.08-.28-1.18.63-2.61,2.05a66.75,66.75,0,0,0-5.61,7.39c-4.66,7.23-5.13,7.86-5.65,7.66-.28-.08-.47-.95-.47-2.17a5.92,5.92,0,0,0-.28-2.25c-.43-.43-2.45,2.65-3.87,5.89-.71,1.66-1.5,3-1.78,3a5.48,5.48,0,0,1-1.62-.55c-2.29-1.15-9.12-1.94-16.55-2-6.71,0-7.39.08-12,1.26a42.23,42.23,0,0,1-6.12,1.26,50.66,50.66,0,0,0-9.4,1.82,13.74,13.74,0,0,0-6.48,6c-.87,2.09-1.86,3-6.36,5.69-9.48,5.69-11.06,8.81-9.56,19.24.32,2.41.47,2.69,2.37,4.38a47.26,47.26,0,0,0,4.86,3.75c4.78,3.28,7,5.81,8.33,9.32.91,2.57,1,3.24.67,4.5-.51,1.86-.32,2.13,1.34,1.86l1.38-.24v6.87l1-.79c1.3-1,2-1,2.53-.08s.63,2.92.24,5.65a5.75,5.75,0,0,0,0,2.29,6.42,6.42,0,0,0,1.42-.67c1-.63,1.22-.63,1.54-.12.55.83.47,2.21-.24,5.92a13.47,13.47,0,0,0-.36,3.48c.12.16.87-.43,1.62-1.3,1.3-1.54,1.34-1.54,1.94-.83.71.95.79,4.42.16,8a8.57,8.57,0,0,0-.2,2.76c.12.16.63-.12,1.15-.55a10.16,10.16,0,0,1,1.38-1.07c.79-.47,1.54,1.9,1.86,5.77.16,1.94.43,3.48.63,3.48a5.7,5.7,0,0,0,1.38-1.78c1.78-3.08,2.53-2.21,2.53,3,0,3.36.39,4,1.74,2.73,2-1.86,2.8-.83,3.24,4.07a8.25,8.25,0,0,0,.59,3c.2,0,.71-.55,1.22-1.18s1.11-1.18,1.38-1.18c.59,0,1.3,1.22,1.3,2.25a3.13,3.13,0,0,0,.59,1.54c.55.71.63.71,2-.83l1.38-1.58.75.87a6.29,6.29,0,0,1,1,2.65c.36,2.25.79,2.53,1.66,1.15,1.5-2.41,2.61-2.49,3.32-.28.24.75.59,1.34.75,1.34a6.64,6.64,0,0,0,1.62-1c1.54-1.15,2.09-1.22,2.76-.39s1.5.71,2.17-.59c.55-1.11.75-1.18,2-.95s1.38.12,2.25-1.42c.79-1.38,1.07-1.58,2-1.42s1.18,0,1.86-1.18c1.78-3,9.91-5.06,9.91-2.53a6.1,6.1,0,0,1-1.5,2.49,64.87,64.87,0,0,0-6.08,8.57c-1.38,2.37-5.41,7.31-6.64,8.18-.79.55-1.66.67-4.46.59-3.44-.12-3.55-.08-5.53,1.22s-2.41,1.42-7.78,2c-4.82.51-6.08.83-7.94,1.78a24.37,24.37,0,0,1-3.91,1.62,9.59,9.59,0,0,0-3.36,2c-1.38,1.26-1.94,1.54-3.28,1.54s-1.74.2-2.8,1.54c-1.74,2.21-2.41,4.38-2.41,8,0,2.65.12,3.2.91,4.07a5,5,0,0,0,1.78,1.22c.79.24,1,0,1.58-1.34.83-2,1.42-2.05,2.29-.24s1.94,2.45,2.73,1.78a7,7,0,0,0,1.18-2.41c.36-1.07.83-1.94,1-1.94s.59.59.91,1.34c.79,1.86,2.33,2.84,3.59,2.29,1.54-.71,2.29-2.69,2.53-6.71.28-4.27.24-4.23,5.33-6.79,4.34-2.21,4.78-2.17,6.2,1,.79,1.78,1.5,2.73,2.29,3.16,2.57,1.3,3.75.36,4.38-3.55a8.79,8.79,0,0,1,.79-2.76c.2-.28,1.78-.59,3.44-.75a11.37,11.37,0,0,0,3.55-.71c.39-.32.71-.24,1.22.24.91.79,1.82.83,2.45,0a2.16,2.16,0,0,1,1.46-.59,14.78,14.78,0,0,0,2.69-.43c1.42-.36,1.9-.32,2.65.2a3.47,3.47,0,0,0,1.74.63c1,0,5.29-2.33,9.44-5.13l4.74-3.16c1.11-.75,3.08-2.21,4.46-3.24,3-2.29,4.15-2.65,5.29-1.66,1,.91.91,2.13-1.07,14.18C582.4,290,581.65,293.75,581,295s-3.55,4.34-4.15,4.34a18.58,18.58,0,0,1-3.48-3.12c-3.83-3.95-6.4-5.33-9.4-5.1-2.29.2-2.92.63-4.42,3.16l-.91,1.5,1.18-.24c.95-.2,1.46,0,3,1.5,6.16,5.57,6.64,6.32,4.42,6.56-1.46.2-6.64-1.3-9.08-2.57a8.23,8.23,0,0,0-4.82-1.07c-4.23,0-6,.71-8.37,3.12-1.46,1.42-2.09,2.37-2.09,3.08,0,1.18.79,1.42,1.58.47.67-.79,1.26-.75,2.09.2.51.63,1.15.79,2.92.79,3,0,7.23.63,7.74,1.15.79.79-.28,1.22-5.77,2.41-8.49,1.82-10.66,3.12-13.11,8-1.5,3-1.7,4.7-.83,6.83.75,1.78,1.54,1.74,2.61-.12a14.92,14.92,0,0,1,3.28-3.24c3.44-2.53,9.52-5.53,11.14-5.53.75,0,1.38.12,1.38.24a16.2,16.2,0,0,1-1.54,2.05c-2.57,3-3.4,6-2.41,8.53.51,1.38,1.34,1.3,2.29-.28.67-1.18,1-1.38,2.92-1.58a15.25,15.25,0,0,0,4.9-1.58c1.54-.75,5-2.21,7.66-3.24a64.06,64.06,0,0,0,8.29-3.75c1.86-1.07,4.58-2.49,6-3.12,6-2.73,11.18-6.91,13.07-10.63.55-1.15,1.82-3.24,2.76-4.7A161.93,161.93,0,0,0,609.65,280c2.53-6.16,2.69-6.36,4.42-5.06,6,4.58,45.5,24.41,48.62,24.41a9.89,9.89,0,0,1,2.37.79,9.15,9.15,0,0,0,3.87.75c1.86-.08,2.13,0,3.08,1.15,1.74,2.05,15.25,6.75,19.51,6.79a8.93,8.93,0,0,1,3,.79c2.13,1,2.41,1,2.41,0,0-1.15,1.7-1,4.66.39a15.55,15.55,0,0,0,3,1.18c1.15,0,1.58.95,2.45,5,1.7,8.22,3.28,13.11,5.57,17.58,1.26,2.37,2.8,2.09,3.52,2.88a34.87,34.87,0,0,1,2.65,4.07c1.94,3.59,6.4,11.22,7.39,12.6,1.74,2.45.67,3-2.76,1.58-1.66-.71-2.49-1.54-5.13-4.94l-3.16-4.11h-3.87c-3.2,0-4.11.16-5.57.87-2.8,1.46-3.28,4.42-.47,3.4.67-.28,1.34-.39,1.42-.28a10.89,10.89,0,0,1,.47,2.53l.28,2.29-1.82-.24a30.39,30.39,0,0,1-5.49-1.9c-7.74-3.4-12-4.38-19.47-4.42-5.37,0-5.61,0-7.43,1-2.09,1.22-3.83,3.32-3.83,4.54,0,.47.08.87.16.87s1.5-.63,3.12-1.42,3.2-1.3,3.44-1.15a2.87,2.87,0,0,1,.39,1.74c0,2.09,1.34,2.65,5.06,2.21,4.54-.55,5.61-.39,9.6,1.38,2.05.91,4.86,2.05,6.28,2.57,4.94,1.74,9.08,3.55,9.08,4,0,1.26-4.78.95-12.44-.87-2.17-.51-4.66-1.07-5.53-1.18s-2.65-.59-3.95-1a78.54,78.54,0,0,0-14.65-2.37c-3.87,0-9.4,3.2-11.06,6.36-.63,1.3-.75,4.31-.12,4.31a12.88,12.88,0,0,0,2.69-2.17,12.65,12.65,0,0,1,2.73-2.17c.24,0,.71.51,1.07,1.15A7,7,0,0,0,667,368c1.22.87,1.62.91,7.82.91a82,82,0,0,1,9.68.51c1.74.24,6.36.63,10.27.87,4.94.28,7.23.55,7.62.91.75.79-.08,1.34-3.12,2-1.38.28-4.66,1.15-7.27,1.86l-4.74,1.34-12.44-.12-12.44-.12L660,377.37c-3.08,1.46-5.49,3.63-6.12,5.45s-.28,5.06.63,6c1.26,1.38,2.05,1,2.73-1.3,1-3.52,2.37-4.19,4.9-2.45,1.78,1.18,2.33,1.22,5.61.12,2.29-.79,3.44-.87,11.26-.95,9.8,0,13-.47,19.47-2.73,2.21-.75,5.85-2,8.1-2.76a39.56,39.56,0,0,1,7.19-1.78c5.33-.59,8.14.59,4.07,1.74l-6.44,1.82c-4.94,1.38-7.62,2.84-10.9,5.85a8.62,8.62,0,0,0-2.88,3.95c-.32,1-.87,2.69-1.26,3.67a4.1,4.1,0,0,0-.2,3.52c.55,1.9,3.36,5.13,4.42,5.13s1.26-.63.51-1.78a2.83,2.83,0,0,1,.43-3.52,9.33,9.33,0,0,1,2.76-1.22,5.16,5.16,0,0,0,3.4-2.29c2-2.73,6.08-5.13,12.56-7.43a29,29,0,0,0,5.29-2.37,6.59,6.59,0,0,1,2.29-1.15,28.26,28.26,0,0,0,6-2.29,4.78,4.78,0,0,1,1.42-.67c1.82-.55,6.08-3.91,9.56-7.5,1.86-1.94,3.87-4,4.46-4.54,4.66-4.42,5.69-2.68,6.44-4.3,1.22-2.49,1.78-6.4,1.58-11-.16-3.71-.2-3.87-1.42-5-1.42-1.34-1.54-2.05-.63-3.44.51-.79.55-1.26.16-2.84-.24-1-.59-2.61-.79-3.48a25.76,25.76,0,0,0-.79-2.73c-.67-1.74,0-2.09,2.45-1.3,1.15.36,3.83.91,5.92,1.26,4.94.79,5.29.95,12.28,5.57A92.6,92.6,0,0,0,789,347.9a135.62,135.62,0,0,1,14.58,6.71c7.31,4.27,10.31,5.73,13.35,6.56,2.09.59,2.61.59,3.44.16s1.11-.43,2.37.79a7.87,7.87,0,0,1,1.78,2.61c.43,1.3,2.09,2.84,7.31,6.83,1.54,1.18,4.19,3.32,5.92,4.78a43.72,43.72,0,0,0,4.11,3.16,11.92,11.92,0,0,1,2.37,1.86c.79.71,2.17,2,3,2.8a5.55,5.55,0,0,1,2.09,3.63c.43,1.94,1.7,4.62,7.86,16.19a58.94,58.94,0,0,1,6,31.8c-.79,7.86-4.86,26.43-7,31.64a15.29,15.29,0,0,0-.95,3,1.13,1.13,0,0,1-.39.87,1.13,1.13,0,0,0-.39.87c0,2.29-6.87,14.65-11.38,20.46-3.12,4.07-5.06,5.89-10.78,10.23-4.9,3.71-6.91,4.66-13.75,6.4-2.92.75-5.45,1.46-5.65,1.58a29.15,29.15,0,0,1-3.79.79c-4.11.67-23.3.79-26.58.16-1.18-.24-4.7-.87-7.86-1.42s-6.68-1.34-7.9-1.74-13.32-4.12-15.06-4.59m44.33-213.72c0,.47-.59.36-.75-.16-.12-.24,0-.39.32-.32S796.13,290.19,796.13,290.35Zm80.14,71.38a.39.39,0,0,1-.36.39.85.85,0,0,1-.63-.39c-.12-.24,0-.39.36-.39S876.28,361.49,876.28,361.73Zm9.08,17c0,.2-.08.39-.16.39s-.32-.2-.43-.39,0-.39.16-.39A.41.41,0,0,1,885.36,378.71ZM419.87,431.65A112.42,112.42,0,0,0,427.36,448c3,5.16,6.42,10.1,10.79,13.77a19.83,19.83,0,0,0,7.15,4,14.18,14.18,0,0,0,7.77,0,21.79,21.79,0,0,0,7.21-3.73,39.6,39.6,0,0,0,6.12-5.88,71.88,71.88,0,0,0,9.4-14.65,98.74,98.74,0,0,0,6.33-16.37,87.08,87.08,0,0,0,2-8.48q.39-2.13.65-4.26c.18-1.44.27-2.75.4-4.36.51-6.18,1.3-12.35,2.43-18.47a159.43,159.43,0,0,1,10.84-35.93,91.46,91.46,0,0,1,4.41-8.61,47,47,0,0,1,6.06-8.39,22.84,22.84,0,0,1,2.21-2.07,14.65,14.65,0,0,1,3.17-2,11.4,11.4,0,0,1,1.11-.43,10.21,10.21,0,0,1,1.33-.33,10.38,10.38,0,0,1,2.59-.14,12.59,12.59,0,0,1,4.14,1.06,20.82,20.82,0,0,1,5.34,3.52,37.11,37.11,0,0,1,3.79,3.88,66.6,66.6,0,0,1,5.84,8.16c1.72,2.79,3.25,5.63,4.67,8.52a123.57,123.57,0,0,1,7.05,17.87q1.42,4.6,2.47,9.33.52,2.37.94,4.77l.74,4.6c.94,6,1.92,11.89,3,17.79s2.25,11.74,3.59,17.48q1,4.31,2.2,8.49c.79,2.79,1.64,5.53,2.6,8.17,1.89,5.26,4.21,10.24,7,13.8a16.28,16.28,0,0,0,4.41,4,12.22,12.22,0,0,0,1.17.61c.2.1.41.16.61.25l.3.13.21.06a4.43,4.43,0,0,0,1.55.18,10.82,10.82,0,0,0,4.47-1.47,46.9,46.9,0,0,0,6.14-4.11c4.34-3.3,8.8-7.4,13.63-11.37A124.79,124.79,0,0,1,621,435.91,66.35,66.35,0,0,1,640.45,428,54.8,54.8,0,0,1,662,427.6a66.88,66.88,0,0,1,19.46,7c5.9,3.22,8.7,5.68,13.61,9.85,7.69,7.69,10.16,10.88,14.4,15.53,8.47,9.32,16.37,18.13,24.34,28.78,8.38,10.51,5.5,7.63,18,15.32l2.89,20.2s-19-9.29-19.24-9.62c-7.56-9.56-10.36-11.14-18.27-20.2S704.67,481,697,471.37c-8.66-8.66-12.76-17.91-22.68-22.34a62.55,62.55,0,0,0-7.47-2.77,47.26,47.26,0,0,0-7.5-1.56,37.48,37.48,0,0,0-14.6,1A51.78,51.78,0,0,0,630.79,452a130.08,130.08,0,0,0-13.51,10l-7,5.76c-2.39,2-4.86,4-7.56,6a57,57,0,0,1-9.19,5.64,33.76,33.76,0,0,1-5.89,2.19,24.83,24.83,0,0,1-7.09.84,22.05,22.05,0,0,1-7.35-1.48l-.85-.34-.73-.34c-.49-.24-1-.45-1.45-.71a30,30,0,0,1-2.76-1.67,33.87,33.87,0,0,1-8.6-8.59c-4.34-6.29-6.66-12.7-8.6-18.92a177.91,177.91,0,0,1-4.4-18.54c-1.18-6.13-2.16-12.22-3-18.31s-1.69-12.15-2.43-18.21l-.55-4.41q-.29-2.09-.68-4.18c-.52-2.79-1.15-5.57-1.9-8.33a110.52,110.52,0,0,0-5.75-16.16,70.23,70.23,0,0,0-8.32-14.36,27.75,27.75,0,0,0-2.45-2.74c-.8-.78-1.67-1.68-2.44-1.51a2.56,2.56,0,0,0-1.15.8,38.13,38.13,0,0,0-4.8,6.37,80.6,80.6,0,0,0-4.18,7.42,149.64,149.64,0,0,0-11.46,33.19c-1.31,5.77-2.36,11.61-3.12,17.49-.18,1.41-.39,3.12-.67,4.68s-.6,3.15-1,4.7a94.81,94.81,0,0,1-2.64,9.11,105.75,105.75,0,0,1-7.66,17.18,77.88,77.88,0,0,1-11,15.37,45,45,0,0,1-7.31,6.34,26.71,26.71,0,0,1-9.1,4.11,18.84,18.84,0,0,1-10.2-.49,23.67,23.67,0,0,1-8.41-5.2c-4.71-4.44-8-9.84-10.75-15.33a114.72,114.72,0,0,1-6.71-17.11.91.91,0,0,1,1.73-.59Z" transform="translate(-317.69 -14)"/><text class="cls-4" transform="translate(49.51 550.9)">eeguana</text></svg>